<?xml version="1.0" encoding="UTF-8" standalone="no"?>
<!DOCTYPE svg PUBLIC "-//W3C//DTD SVG 1.1//EN"
 "http://www.w3.org/Graphics/SVG/1.1/DTD/svg11.dtd">
<!-- Generated by graphviz version 12.1.1 (20240910.0053)
 -->
<!-- Pages: 1 -->
<svg width="1943pt" height="620pt"
 viewBox="0.00 0.00 1943.25 620.00" xmlns="http://www.w3.org/2000/svg" xmlns:xlink="http://www.w3.org/1999/xlink">
<g id="graph0" class="graph" transform="scale(1 1) rotate(0) translate(4 616)">
<polygon fill="white" stroke="none" points="-4,4 -4,-616 1939.25,-616 1939.25,4 -4,4"/>
<!-- PLL -->
<g id="node1" class="node">
<title>PLL</title>
<ellipse fill="none" stroke="blue" cx="1687.01" cy="-306" rx="27.3" ry="18"/>
<text text-anchor="middle" x="1687.01" y="-300.95" font-family="Times New Roman,serif" font-size="14.00">PLL</text>
</g>
<!-- add&#45;user&#45;bin -->
<g id="node2" class="node">
<title>add&#45;user&#45;bin</title>
<ellipse fill="none" stroke="green" cx="293.01" cy="-450" rx="57.49" ry="18"/>
<text text-anchor="middle" x="293.01" y="-444.95" font-family="Times New Roman,serif" font-size="14.00">add&#45;user&#45;bin</text>
</g>
<!-- cmd&#45;args -->
<g id="node3" class="node">
<title>cmd&#45;args</title>
<ellipse fill="none" stroke="blue" cx="734.01" cy="-378" rx="45.72" ry="18"/>
<text text-anchor="middle" x="734.01" y="-372.95" font-family="Times New Roman,serif" font-size="14.00">cmd&#45;args</text>
</g>
<!-- add&#45;user&#45;bin&#45;&gt;cmd&#45;args -->
<g id="edge1" class="edge">
<title>add&#45;user&#45;bin&#45;&gt;cmd&#45;args</title>
<path fill="none" stroke="black" d="M335.36,-437.38C343.5,-435.4 351.99,-433.5 360.01,-432 491.16,-407.54 526.53,-418.59 658.01,-396 666.73,-394.5 675.95,-392.66 684.85,-390.75"/>
<polygon fill="black" stroke="black" points="685.4,-394.21 694.41,-388.64 683.89,-387.38 685.4,-394.21"/>
</g>
<!-- proj&#45;utils -->
<g id="node4" class="node">
<title>proj&#45;utils</title>
<ellipse fill="none" stroke="red" cx="604.01" cy="-378" rx="44.7" ry="18"/>
<text text-anchor="middle" x="604.01" y="-372.95" font-family="Times New Roman,serif" font-size="14.00">proj&#45;utils</text>
</g>
<!-- add&#45;user&#45;bin&#45;&gt;proj&#45;utils -->
<g id="edge2" class="edge">
<title>add&#45;user&#45;bin&#45;&gt;proj&#45;utils</title>
<path fill="none" stroke="black" d="M336.18,-437.67C344.09,-435.7 352.28,-433.73 360.01,-432 441.75,-413.69 463.58,-415.62 545.01,-396 549.32,-394.96 553.78,-393.81 558.24,-392.62"/>
<polygon fill="black" stroke="black" points="559.04,-396.03 567.75,-389.98 557.18,-389.28 559.04,-396.03"/>
</g>
<!-- exec&#45;utils -->
<g id="node18" class="node">
<title>exec&#45;utils</title>
<ellipse fill="none" stroke="red" cx="344.01" cy="-306" rx="46.75" ry="18"/>
<text text-anchor="middle" x="344.01" y="-300.95" font-family="Times New Roman,serif" font-size="14.00">exec&#45;utils</text>
</g>
<!-- proj&#45;utils&#45;&gt;exec&#45;utils -->
<g id="edge60" class="edge">
<title>proj&#45;utils&#45;&gt;exec&#45;utils</title>
<path fill="none" stroke="black" d="M567.59,-367.19C521.85,-354.88 443.24,-333.72 392.47,-320.05"/>
<polygon fill="black" stroke="black" points="393.48,-316.69 382.92,-317.47 391.66,-323.45 393.48,-316.69"/>
</g>
<!-- fs -->
<g id="node19" class="node">
<title>fs</title>
<ellipse fill="none" stroke="red" cx="953.01" cy="-306" rx="27" ry="18"/>
<text text-anchor="middle" x="953.01" y="-300.95" font-family="Times New Roman,serif" font-size="14.00">fs</text>
</g>
<!-- proj&#45;utils&#45;&gt;fs -->
<g id="edge62" class="edge">
<title>proj&#45;utils&#45;&gt;fs</title>
<path fill="none" stroke="black" d="M642.12,-368.12C653.92,-365.43 666.99,-362.52 679.01,-360 763.43,-342.27 862.95,-323.57 915.74,-313.82"/>
<polygon fill="black" stroke="black" points="916.2,-317.29 925.4,-312.04 914.93,-310.41 916.2,-317.29"/>
</g>
<!-- dump -->
<g id="node20" class="node">
<title>dump</title>
<ellipse fill="none" stroke="red" cx="1104.01" cy="-234" rx="32.41" ry="18"/>
<text text-anchor="middle" x="1104.01" y="-228.95" font-family="Times New Roman,serif" font-size="14.00">dump</text>
</g>
<!-- proj&#45;utils&#45;&gt;dump -->
<g id="edge61" class="edge">
<title>proj&#45;utils&#45;&gt;dump</title>
<path fill="none" stroke="black" d="M639.68,-366.85C697.78,-350.31 816.47,-316.54 917.01,-288 967.91,-273.55 1026.6,-256.92 1064.45,-246.2"/>
<polygon fill="black" stroke="black" points="1065.37,-249.58 1074.04,-243.49 1063.47,-242.84 1065.37,-249.58"/>
</g>
<!-- add&#45;user&#45;element -->
<g id="node5" class="node">
<title>add&#45;user&#45;element</title>
<ellipse fill="none" stroke="green" cx="444.01" cy="-450" rx="75.41" ry="18"/>
<text text-anchor="middle" x="444.01" y="-444.95" font-family="Times New Roman,serif" font-size="14.00">add&#45;user&#45;element</text>
</g>
<!-- add&#45;user&#45;element&#45;&gt;cmd&#45;args -->
<g id="edge3" class="edge">
<title>add&#45;user&#45;element&#45;&gt;cmd&#45;args</title>
<path fill="none" stroke="black" d="M495.52,-436.57C549.05,-423.65 632.21,-403.57 684.85,-390.87"/>
<polygon fill="black" stroke="black" points="685.55,-394.3 694.45,-388.55 683.91,-387.49 685.55,-394.3"/>
</g>
<!-- add&#45;user&#45;element&#45;&gt;proj&#45;utils -->
<g id="edge4" class="edge">
<title>add&#45;user&#45;element&#45;&gt;proj&#45;utils</title>
<path fill="none" stroke="black" d="M479.12,-433.64C504.27,-422.64 538.16,-407.81 564.29,-396.38"/>
<polygon fill="black" stroke="black" points="565.46,-399.69 573.22,-392.47 562.66,-393.27 565.46,-399.69"/>
</g>
<!-- add&#45;user&#45;lib -->
<g id="node6" class="node">
<title>add&#45;user&#45;lib</title>
<ellipse fill="none" stroke="green" cx="593.01" cy="-450" rx="55.45" ry="18"/>
<text text-anchor="middle" x="593.01" y="-444.95" font-family="Times New Roman,serif" font-size="14.00">add&#45;user&#45;lib</text>
</g>
<!-- add&#45;user&#45;lib&#45;&gt;cmd&#45;args -->
<g id="edge5" class="edge">
<title>add&#45;user&#45;lib&#45;&gt;cmd&#45;args</title>
<path fill="none" stroke="black" d="M622.57,-434.33C644,-423.69 673.15,-409.22 696.26,-397.74"/>
<polygon fill="black" stroke="black" points="697.65,-400.96 705.05,-393.38 694.54,-394.69 697.65,-400.96"/>
</g>
<!-- add&#45;user&#45;lib&#45;&gt;proj&#45;utils -->
<g id="edge6" class="edge">
<title>add&#45;user&#45;lib&#45;&gt;proj&#45;utils</title>
<path fill="none" stroke="black" d="M595.73,-431.7C596.89,-424.32 598.27,-415.52 599.57,-407.25"/>
<polygon fill="black" stroke="black" points="602.99,-408.02 601.09,-397.6 596.08,-406.93 602.99,-408.02"/>
</g>
<!-- ast&#45;builder -->
<g id="node7" class="node">
<title>ast&#45;builder</title>
<ellipse fill="none" stroke="red" cx="836.01" cy="-90" rx="50.33" ry="18"/>
<text text-anchor="middle" x="836.01" y="-84.95" font-family="Times New Roman,serif" font-size="14.00">ast&#45;builder</text>
</g>
<!-- llutils -->
<g id="node8" class="node">
<title>llutils</title>
<ellipse fill="none" stroke="red" cx="1109.01" cy="-18" rx="31.9" ry="18"/>
<text text-anchor="middle" x="1109.01" y="-12.95" font-family="Times New Roman,serif" font-size="14.00">llutils</text>
</g>
<!-- ast&#45;builder&#45;&gt;llutils -->
<g id="edge7" class="edge">
<title>ast&#45;builder&#45;&gt;llutils</title>
<path fill="none" stroke="black" d="M875.6,-78.41C883.67,-76.27 892.11,-74.05 900.01,-72 958.8,-56.74 1027.02,-39.53 1069.1,-28.98"/>
<polygon fill="black" stroke="black" points="1069.93,-32.38 1078.78,-26.55 1068.23,-25.59 1069.93,-32.38"/>
</g>
<!-- ast&#45;walker -->
<g id="node9" class="node">
<title>ast&#45;walker</title>
<ellipse fill="none" stroke="red" cx="1652.01" cy="-450" rx="49.3" ry="18"/>
<text text-anchor="middle" x="1652.01" y="-444.95" font-family="Times New Roman,serif" font-size="14.00">ast&#45;walker</text>
</g>
<!-- data&#45;extractor -->
<g id="node10" class="node">
<title>data&#45;extractor</title>
<ellipse fill="none" stroke="blue" cx="1692.01" cy="-378" rx="62.1" ry="18"/>
<text text-anchor="middle" x="1692.01" y="-372.95" font-family="Times New Roman,serif" font-size="14.00">data&#45;extractor</text>
</g>
<!-- ast&#45;walker&#45;&gt;data&#45;extractor -->
<g id="edge8" class="edge">
<title>ast&#45;walker&#45;&gt;data&#45;extractor</title>
<path fill="none" stroke="black" d="M1661.69,-432.05C1666.22,-424.14 1671.7,-414.54 1676.76,-405.69"/>
<polygon fill="black" stroke="black" points="1679.74,-407.52 1681.67,-397.1 1673.67,-404.05 1679.74,-407.52"/>
</g>
<!-- env&#45;stack -->
<g id="node11" class="node">
<title>env&#45;stack</title>
<ellipse fill="none" stroke="red" cx="1889.01" cy="-234" rx="46.23" ry="18"/>
<text text-anchor="middle" x="1889.01" y="-228.95" font-family="Times New Roman,serif" font-size="14.00">env&#45;stack</text>
</g>
<!-- ast&#45;walker&#45;&gt;env&#45;stack -->
<g id="edge9" class="edge">
<title>ast&#45;walker&#45;&gt;env&#45;stack</title>
<path fill="none" stroke="black" d="M1697.09,-442.23C1763.64,-431.77 1881.69,-411.31 1894.01,-396 1924.41,-358.22 1911.34,-297.76 1899.73,-262.67"/>
<polygon fill="black" stroke="black" points="1903.04,-261.52 1896.42,-253.24 1896.43,-263.84 1903.04,-261.52"/>
</g>
<!-- llcoffee -->
<g id="node12" class="node">
<title>llcoffee</title>
<ellipse fill="none" stroke="red" cx="1329.01" cy="-378" rx="39.07" ry="18"/>
<text text-anchor="middle" x="1329.01" y="-372.95" font-family="Times New Roman,serif" font-size="14.00">llcoffee</text>
</g>
<!-- ast&#45;walker&#45;&gt;llcoffee -->
<g id="edge10" class="edge">
<title>ast&#45;walker&#45;&gt;llcoffee</title>
<path fill="none" stroke="black" d="M1610.45,-439.99C1549.98,-426.89 1438.11,-402.64 1375.16,-389"/>
<polygon fill="black" stroke="black" points="1375.99,-385.6 1365.47,-386.9 1374.51,-392.44 1375.99,-385.6"/>
</g>
<!-- data&#45;extractor&#45;&gt;PLL -->
<g id="edge15" class="edge">
<title>data&#45;extractor&#45;&gt;PLL</title>
<path fill="none" stroke="black" d="M1690.78,-359.7C1690.26,-352.41 1689.64,-343.73 1689.05,-335.54"/>
<polygon fill="black" stroke="black" points="1692.55,-335.34 1688.34,-325.61 1685.56,-335.84 1692.55,-335.34"/>
</g>
<!-- env&#45;stack&#45;&gt;llutils -->
<g id="edge21" class="edge">
<title>env&#45;stack&#45;&gt;llutils</title>
<path fill="none" stroke="black" d="M1855.62,-221.21C1774.13,-192.73 1558.26,-119.08 1374.01,-72 1295.83,-52.02 1203.09,-34.96 1150.64,-25.92"/>
<polygon fill="black" stroke="black" points="1151.39,-22.5 1140.94,-24.26 1150.21,-29.4 1151.39,-22.5"/>
</g>
<!-- llcoffee&#45;&gt;exec&#45;utils -->
<g id="edge38" class="edge">
<title>llcoffee&#45;&gt;exec&#45;utils</title>
<path fill="none" stroke="black" d="M1300.45,-365.4C1294.14,-363.25 1287.43,-361.29 1281.01,-360 1111.6,-325.93 579.67,-311.93 402.26,-308.14"/>
<polygon fill="black" stroke="black" points="402.43,-304.64 392.36,-307.93 402.28,-311.64 402.43,-304.64"/>
</g>
<!-- llcoffee&#45;&gt;fs -->
<g id="edge39" class="edge">
<title>llcoffee&#45;&gt;fs</title>
<path fill="none" stroke="black" d="M1299.82,-365.72C1293.67,-363.61 1287.18,-361.58 1281.01,-360 1177.58,-333.56 1052.27,-317.65 990.78,-310.86"/>
<polygon fill="black" stroke="black" points="991.53,-307.42 981.21,-309.83 990.77,-314.38 991.53,-307.42"/>
</g>
<!-- node&#45;walker -->
<g id="node33" class="node">
<title>node&#45;walker</title>
<ellipse fill="none" stroke="red" cx="1249.01" cy="-306" rx="56.98" ry="18"/>
<text text-anchor="middle" x="1249.01" y="-300.95" font-family="Times New Roman,serif" font-size="14.00">node&#45;walker</text>
</g>
<!-- llcoffee&#45;&gt;node&#45;walker -->
<g id="edge40" class="edge">
<title>llcoffee&#45;&gt;node&#45;walker</title>
<path fill="none" stroke="black" d="M1311.65,-361.81C1301.33,-352.78 1288,-341.11 1276.29,-330.87"/>
<polygon fill="black" stroke="black" points="1278.7,-328.33 1268.87,-324.38 1274.09,-333.6 1278.7,-328.33"/>
</g>
<!-- cielo -->
<g id="node13" class="node">
<title>cielo</title>
<ellipse fill="none" stroke="red" cx="1555.01" cy="-594" rx="28.83" ry="18"/>
<text text-anchor="middle" x="1555.01" y="-588.95" font-family="Times New Roman,serif" font-size="14.00">cielo</text>
</g>
<!-- coffee -->
<g id="node14" class="node">
<title>coffee</title>
<ellipse fill="none" stroke="red" cx="1555.01" cy="-522" rx="33.95" ry="18"/>
<text text-anchor="middle" x="1555.01" y="-516.95" font-family="Times New Roman,serif" font-size="14.00">coffee</text>
</g>
<!-- cielo&#45;&gt;coffee -->
<g id="edge11" class="edge">
<title>cielo&#45;&gt;coffee</title>
<path fill="none" stroke="black" d="M1555.01,-575.7C1555.01,-568.41 1555.01,-559.73 1555.01,-551.54"/>
<polygon fill="black" stroke="black" points="1558.51,-551.62 1555.01,-541.62 1551.51,-551.62 1558.51,-551.62"/>
</g>
<!-- coffee&#45;&gt;ast&#45;walker -->
<g id="edge13" class="edge">
<title>coffee&#45;&gt;ast&#45;walker</title>
<path fill="none" stroke="black" d="M1574.64,-506.83C1588.03,-497.17 1606.03,-484.18 1621.3,-473.17"/>
<polygon fill="black" stroke="black" points="1623.1,-476.18 1629.16,-467.49 1619,-470.51 1623.1,-476.18"/>
</g>
<!-- heredoc -->
<g id="node15" class="node">
<title>heredoc</title>
<ellipse fill="none" stroke="red" cx="1232.01" cy="-378" rx="40.09" ry="18"/>
<text text-anchor="middle" x="1232.01" y="-372.95" font-family="Times New Roman,serif" font-size="14.00">heredoc</text>
</g>
<!-- coffee&#45;&gt;heredoc -->
<g id="edge12" class="edge">
<title>coffee&#45;&gt;heredoc</title>
<path fill="none" stroke="black" d="M1533.79,-507.67C1517.96,-497.43 1496.05,-482.6 1478.01,-468 1459.93,-453.36 1460.53,-442.96 1440.01,-432 1376.1,-397.87 1350.68,-415.91 1281.01,-396 1278.46,-395.27 1275.84,-394.48 1273.2,-393.66"/>
<polygon fill="black" stroke="black" points="1274.46,-390.39 1263.87,-390.61 1272.29,-397.04 1274.46,-390.39"/>
</g>
<!-- fetcher -->
<g id="node25" class="node">
<title>fetcher</title>
<ellipse fill="none" stroke="red" cx="1360.01" cy="-306" rx="36.51" ry="18"/>
<text text-anchor="middle" x="1360.01" y="-300.95" font-family="Times New Roman,serif" font-size="14.00">fetcher</text>
</g>
<!-- heredoc&#45;&gt;fetcher -->
<g id="edge34" class="edge">
<title>heredoc&#45;&gt;fetcher</title>
<path fill="none" stroke="black" d="M1256.69,-363.5C1276.51,-352.67 1304.54,-337.34 1326.41,-325.38"/>
<polygon fill="black" stroke="black" points="1327.85,-328.58 1334.95,-320.71 1324.49,-322.44 1327.85,-328.58"/>
</g>
<!-- context&#45;stack -->
<g id="node16" class="node">
<title>context&#45;stack</title>
<ellipse fill="none" stroke="red" cx="1002.01" cy="-90" rx="60.05" ry="18"/>
<text text-anchor="middle" x="1002.01" y="-84.95" font-family="Times New Roman,serif" font-size="14.00">context&#45;stack</text>
</g>
<!-- context&#45;stack&#45;&gt;llutils -->
<g id="edge14" class="edge">
<title>context&#45;stack&#45;&gt;llutils</title>
<path fill="none" stroke="black" d="M1026.29,-73.12C1042.06,-62.8 1062.72,-49.28 1079.45,-38.34"/>
<polygon fill="black" stroke="black" points="1081.06,-41.47 1087.51,-33.07 1077.23,-35.61 1081.06,-41.47"/>
</g>
<!-- digraph -->
<g id="node17" class="node">
<title>digraph</title>
<ellipse fill="none" stroke="red" cx="277.01" cy="-378" rx="39.07" ry="18"/>
<text text-anchor="middle" x="277.01" y="-372.95" font-family="Times New Roman,serif" font-size="14.00">digraph</text>
</g>
<!-- digraph&#45;&gt;exec&#45;utils -->
<g id="edge16" class="edge">
<title>digraph&#45;&gt;exec&#45;utils</title>
<path fill="none" stroke="black" d="M292.22,-361.12C300.58,-352.38 311.13,-341.35 320.53,-331.54"/>
<polygon fill="black" stroke="black" points="322.97,-334.04 327.36,-324.4 317.91,-329.2 322.97,-334.04"/>
</g>
<!-- digraph&#45;&gt;fs -->
<g id="edge17" class="edge">
<title>digraph&#45;&gt;fs</title>
<path fill="none" stroke="black" d="M315.07,-372.95C347.69,-369.49 395.94,-364.39 438.01,-360 616.28,-341.42 829.3,-319.63 914.77,-310.9"/>
<polygon fill="black" stroke="black" points="915.1,-314.38 924.7,-309.89 914.39,-307.42 915.1,-314.38"/>
</g>
<!-- exec&#45;utils&#45;&gt;llutils -->
<g id="edge22" class="edge">
<title>exec&#45;utils&#45;&gt;llutils</title>
<path fill="none" stroke="black" d="M384.58,-296.58C479.38,-275.67 720.59,-215.15 895.01,-108 914.83,-95.82 912.89,-83.67 933.01,-72 975.42,-47.41 1030.3,-33.25 1067.42,-25.85"/>
<polygon fill="black" stroke="black" points="1067.68,-29.37 1076.85,-24.05 1066.37,-22.49 1067.68,-29.37"/>
</g>
<!-- metadata -->
<g id="node29" class="node">
<title>metadata</title>
<ellipse fill="none" stroke="red" cx="1000.01" cy="-162" rx="44.7" ry="18"/>
<text text-anchor="middle" x="1000.01" y="-156.95" font-family="Times New Roman,serif" font-size="14.00">metadata</text>
</g>
<!-- fs&#45;&gt;metadata -->
<g id="edge31" class="edge">
<title>fs&#45;&gt;metadata</title>
<path fill="none" stroke="black" d="M958.59,-288.15C966.53,-264.16 981.2,-219.84 990.78,-190.9"/>
<polygon fill="black" stroke="black" points="994,-192.3 993.82,-181.7 987.36,-190.1 994,-192.3"/>
</g>
<!-- text&#45;block -->
<g id="node21" class="node">
<title>text&#45;block</title>
<ellipse fill="none" stroke="red" cx="1118.01" cy="-162" rx="48.28" ry="18"/>
<text text-anchor="middle" x="1118.01" y="-156.95" font-family="Times New Roman,serif" font-size="14.00">text&#45;block</text>
</g>
<!-- dump&#45;&gt;text&#45;block -->
<g id="edge18" class="edge">
<title>dump&#45;&gt;text&#45;block</title>
<path fill="none" stroke="black" d="M1107.47,-215.7C1108.95,-208.32 1110.71,-199.52 1112.36,-191.25"/>
<polygon fill="black" stroke="black" points="1115.77,-192.08 1114.29,-181.59 1108.9,-190.71 1115.77,-192.08"/>
</g>
<!-- to&#45;nice -->
<g id="node22" class="node">
<title>to&#45;nice</title>
<ellipse fill="none" stroke="red" cx="1224.01" cy="-162" rx="36.51" ry="18"/>
<text text-anchor="middle" x="1224.01" y="-156.95" font-family="Times New Roman,serif" font-size="14.00">to&#45;nice</text>
</g>
<!-- dump&#45;&gt;to&#45;nice -->
<g id="edge19" class="edge">
<title>dump&#45;&gt;to&#45;nice</title>
<path fill="none" stroke="black" d="M1125.74,-220.32C1144.08,-209.62 1170.61,-194.15 1191.49,-181.97"/>
<polygon fill="black" stroke="black" points="1193.04,-185.12 1199.91,-177.06 1189.51,-179.07 1193.04,-185.12"/>
</g>
<!-- text&#45;block&#45;&gt;llutils -->
<g id="edge68" class="edge">
<title>text&#45;block&#45;&gt;llutils</title>
<path fill="none" stroke="black" d="M1116.91,-143.59C1115.39,-119.61 1112.63,-76.14 1110.81,-47.42"/>
<polygon fill="black" stroke="black" points="1114.32,-47.38 1110.19,-37.62 1107.33,-47.82 1114.32,-47.38"/>
</g>
<!-- indent -->
<g id="node26" class="node">
<title>indent</title>
<ellipse fill="none" stroke="red" cx="1331.01" cy="-90" rx="33.95" ry="18"/>
<text text-anchor="middle" x="1331.01" y="-84.95" font-family="Times New Roman,serif" font-size="14.00">indent</text>
</g>
<!-- to&#45;nice&#45;&gt;indent -->
<g id="edge70" class="edge">
<title>to&#45;nice&#45;&gt;indent</title>
<path fill="none" stroke="black" d="M1245.41,-147C1261.36,-136.57 1283.35,-122.18 1301.05,-110.6"/>
<polygon fill="black" stroke="black" points="1302.66,-113.73 1309.11,-105.33 1298.83,-107.87 1302.66,-113.73"/>
</g>
<!-- elm&#45;doc -->
<g id="node23" class="node">
<title>elm&#45;doc</title>
<ellipse fill="none" stroke="red" cx="1829.01" cy="-450" rx="41.63" ry="18"/>
<text text-anchor="middle" x="1829.01" y="-444.95" font-family="Times New Roman,serif" font-size="14.00">elm&#45;doc</text>
</g>
<!-- section&#45;map -->
<g id="node24" class="node">
<title>section&#45;map</title>
<ellipse fill="none" stroke="red" cx="1829.01" cy="-378" rx="56.47" ry="18"/>
<text text-anchor="middle" x="1829.01" y="-372.95" font-family="Times New Roman,serif" font-size="14.00">section&#45;map</text>
</g>
<!-- elm&#45;doc&#45;&gt;section&#45;map -->
<g id="edge20" class="edge">
<title>elm&#45;doc&#45;&gt;section&#45;map</title>
<path fill="none" stroke="black" d="M1829.01,-431.7C1829.01,-424.41 1829.01,-415.73 1829.01,-407.54"/>
<polygon fill="black" stroke="black" points="1832.51,-407.62 1829.01,-397.62 1825.51,-407.62 1832.51,-407.62"/>
</g>
<!-- section -->
<g id="node41" class="node">
<title>section</title>
<ellipse fill="none" stroke="red" cx="1453.01" cy="-162" rx="37.02" ry="18"/>
<text text-anchor="middle" x="1453.01" y="-156.95" font-family="Times New Roman,serif" font-size="14.00">section</text>
</g>
<!-- section&#45;map&#45;&gt;section -->
<g id="edge64" class="edge">
<title>section&#45;map&#45;&gt;section</title>
<path fill="none" stroke="black" d="M1812.13,-360.35C1792.09,-341.21 1757.09,-309.65 1723.01,-288 1645.92,-239.02 1546.52,-198.07 1492.4,-177.42"/>
<polygon fill="black" stroke="black" points="1493.89,-174.24 1483.3,-173.98 1491.41,-180.79 1493.89,-174.24"/>
</g>
<!-- fetcher&#45;&gt;dump -->
<g id="edge23" class="edge">
<title>fetcher&#45;&gt;dump</title>
<path fill="none" stroke="black" d="M1332.1,-293.89C1326.48,-291.81 1320.59,-289.75 1315.01,-288 1256.74,-269.74 1187.91,-253.41 1145.11,-243.85"/>
<polygon fill="black" stroke="black" points="1146.01,-240.46 1135.49,-241.72 1144.5,-247.3 1146.01,-240.46"/>
</g>
<!-- fetcher&#45;&gt;indent -->
<g id="edge24" class="edge">
<title>fetcher&#45;&gt;indent</title>
<path fill="none" stroke="black" d="M1357.69,-287.85C1352.71,-251.14 1340.99,-164.66 1334.88,-119.53"/>
<polygon fill="black" stroke="black" points="1338.36,-119.17 1333.55,-109.73 1331.43,-120.11 1338.36,-119.17"/>
</g>
<!-- indent&#45;&gt;llutils -->
<g id="edge35" class="edge">
<title>indent&#45;&gt;llutils</title>
<path fill="none" stroke="black" d="M1302.44,-79.99C1262.91,-67.53 1191.41,-44.98 1147.29,-31.07"/>
<polygon fill="black" stroke="black" points="1148.46,-27.77 1137.87,-28.1 1146.35,-34.44 1148.46,-27.77"/>
</g>
<!-- file&#45;processor -->
<g id="node27" class="node">
<title>file&#45;processor</title>
<ellipse fill="none" stroke="red" cx="1267.01" cy="-450" rx="61.59" ry="18"/>
<text text-anchor="middle" x="1267.01" y="-444.95" font-family="Times New Roman,serif" font-size="14.00">file&#45;processor</text>
</g>
<!-- file&#45;processor&#45;&gt;heredoc -->
<g id="edge26" class="edge">
<title>file&#45;processor&#45;&gt;heredoc</title>
<path fill="none" stroke="black" d="M1258.36,-431.7C1254.45,-423.87 1249.73,-414.44 1245.38,-405.73"/>
<polygon fill="black" stroke="black" points="1248.6,-404.36 1241,-396.98 1242.34,-407.49 1248.6,-404.36"/>
</g>
<!-- file&#45;processor&#45;&gt;fs -->
<g id="edge25" class="edge">
<title>file&#45;processor&#45;&gt;fs</title>
<path fill="none" stroke="black" d="M1220.85,-437.7C1212.59,-435.75 1204.06,-433.78 1196.01,-432 1117.63,-414.65 1086.74,-439.1 1019.01,-396 995.24,-380.87 977.07,-353.92 965.86,-333.63"/>
<polygon fill="black" stroke="black" points="969.11,-332.28 961.36,-325.06 962.92,-335.54 969.11,-332.28"/>
</g>
<!-- for&#45;each&#45;file -->
<g id="node28" class="node">
<title>for&#45;each&#45;file</title>
<ellipse fill="none" stroke="green" cx="161.01" cy="-450" rx="56.98" ry="18"/>
<text text-anchor="middle" x="161.01" y="-444.95" font-family="Times New Roman,serif" font-size="14.00">for&#45;each&#45;file</text>
</g>
<!-- for&#45;each&#45;file&#45;&gt;cmd&#45;args -->
<g id="edge29" class="edge">
<title>for&#45;each&#45;file&#45;&gt;cmd&#45;args</title>
<path fill="none" stroke="black" d="M202.33,-437.22C210.46,-435.23 218.96,-433.36 227.01,-432 416.54,-399.91 468,-425.05 658.01,-396 666.85,-394.65 676.18,-392.86 685.18,-390.96"/>
<polygon fill="black" stroke="black" points="685.83,-394.4 694.84,-388.83 684.32,-387.56 685.83,-394.4"/>
</g>
<!-- for&#45;each&#45;file&#45;&gt;exec&#45;utils -->
<g id="edge27" class="edge">
<title>for&#45;each&#45;file&#45;&gt;exec&#45;utils</title>
<path fill="none" stroke="black" d="M203.66,-437.6C249.4,-425 316.64,-405.27 325.01,-396 339.67,-379.76 344.03,-355.05 344.94,-335.78"/>
<polygon fill="black" stroke="black" points="348.44,-335.9 345.1,-325.85 341.44,-335.79 348.44,-335.9"/>
</g>
<!-- for&#45;each&#45;file&#45;&gt;fs -->
<g id="edge30" class="edge">
<title>for&#45;each&#45;file&#45;&gt;fs</title>
<path fill="none" stroke="black" d="M202.73,-437.41C210.75,-435.42 219.11,-433.51 227.01,-432 352.41,-408.03 396.61,-450.61 512.01,-396 533.04,-386.05 529.01,-370.01 550.01,-360 614.19,-329.43 826.99,-314.15 914.71,-309.03"/>
<polygon fill="black" stroke="black" points="914.69,-312.53 924.47,-308.47 914.29,-305.55 914.69,-312.53"/>
</g>
<!-- for&#45;each&#45;file&#45;&gt;dump -->
<g id="edge28" class="edge">
<title>for&#45;each&#45;file&#45;&gt;dump</title>
<path fill="none" stroke="black" d="M204.23,-437.99C242.17,-428.01 298.68,-412.4 347.01,-396 388.2,-382.02 396.31,-372.37 438.01,-360 592.35,-314.21 634.75,-317.53 793.01,-288 888.92,-270.11 1001.93,-251.45 1061.81,-241.76"/>
<polygon fill="black" stroke="black" points="1062.25,-245.24 1071.56,-240.19 1061.13,-238.33 1062.25,-245.24"/>
</g>
<!-- metadata&#45;&gt;llutils -->
<g id="edge50" class="edge">
<title>metadata&#45;&gt;llutils</title>
<path fill="none" stroke="black" d="M1025.35,-146.76C1040.25,-137.34 1058.55,-123.84 1071.01,-108 1085.29,-89.85 1095.19,-65.53 1101.3,-46.9"/>
<polygon fill="black" stroke="black" points="1104.57,-48.17 1104.17,-37.58 1097.88,-46.11 1104.57,-48.17"/>
</g>
<!-- graphCode -->
<g id="node30" class="node">
<title>graphCode</title>
<ellipse fill="none" stroke="green" cx="1379.01" cy="-522" rx="51.35" ry="18"/>
<text text-anchor="middle" x="1379.01" y="-516.95" font-family="Times New Roman,serif" font-size="14.00">graphCode</text>
</g>
<!-- graphCode&#45;&gt;digraph -->
<g id="edge33" class="edge">
<title>graphCode&#45;&gt;digraph</title>
<path fill="none" stroke="black" d="M1330.12,-516.31C1288.21,-512.45 1226.19,-507.13 1172.01,-504 1112.24,-500.55 136.63,-511.03 95.01,-468 50.69,-422.17 160.38,-396.62 228.2,-385.61"/>
<polygon fill="black" stroke="black" points="228.68,-389.08 238.02,-384.08 227.6,-382.16 228.68,-389.08"/>
</g>
<!-- peggy -->
<g id="node31" class="node">
<title>peggy</title>
<ellipse fill="none" stroke="red" cx="1520.01" cy="-450" rx="33.44" ry="18"/>
<text text-anchor="middle" x="1520.01" y="-444.95" font-family="Times New Roman,serif" font-size="14.00">peggy</text>
</g>
<!-- graphCode&#45;&gt;peggy -->
<g id="edge32" class="edge">
<title>graphCode&#45;&gt;peggy</title>
<path fill="none" stroke="black" d="M1407.89,-506.67C1430.48,-495.45 1461.97,-479.81 1485.83,-467.97"/>
<polygon fill="black" stroke="black" points="1487.11,-471.24 1494.51,-463.66 1484,-464.97 1487.11,-471.24"/>
</g>
<!-- peggy&#45;&gt;llcoffee -->
<g id="edge55" class="edge">
<title>peggy&#45;&gt;llcoffee</title>
<path fill="none" stroke="black" d="M1493.05,-439.12C1460.86,-427.32 1406.69,-407.47 1369.47,-393.83"/>
<polygon fill="black" stroke="black" points="1371,-390.66 1360.4,-390.5 1368.59,-397.23 1371,-390.66"/>
</g>
<!-- peggy&#45;&gt;section&#45;map -->
<g id="edge57" class="edge">
<title>peggy&#45;&gt;section&#45;map</title>
<path fill="none" stroke="black" d="M1550.23,-441.94C1563.63,-438.84 1579.6,-435.19 1594.01,-432 1668.99,-415.4 1688.26,-413.58 1763.01,-396 1767.05,-395.05 1771.22,-394.04 1775.41,-393.01"/>
<polygon fill="black" stroke="black" points="1776.15,-396.43 1785,-390.61 1774.45,-389.64 1776.15,-396.43"/>
</g>
<!-- peggy&#45;&gt;fetcher -->
<g id="edge56" class="edge">
<title>peggy&#45;&gt;fetcher</title>
<path fill="none" stroke="black" d="M1492.07,-439.74C1469.32,-431.15 1437.43,-416.57 1415.01,-396 1396.13,-378.67 1381.35,-353.41 1371.89,-334.22"/>
<polygon fill="black" stroke="black" points="1375.15,-332.92 1367.72,-325.38 1368.82,-335.91 1375.15,-332.92"/>
</g>
<!-- op&#45;dumper -->
<g id="node39" class="node">
<title>op&#45;dumper</title>
<ellipse fill="none" stroke="red" cx="1505.01" cy="-306" rx="51.86" ry="18"/>
<text text-anchor="middle" x="1505.01" y="-300.95" font-family="Times New Roman,serif" font-size="14.00">op&#45;dumper</text>
</g>
<!-- peggy&#45;&gt;op&#45;dumper -->
<g id="edge59" class="edge">
<title>peggy&#45;&gt;op&#45;dumper</title>
<path fill="none" stroke="black" d="M1518.17,-431.59C1515.64,-407.61 1511.05,-364.14 1508.01,-335.42"/>
<polygon fill="black" stroke="black" points="1511.51,-335.19 1506.98,-325.62 1504.55,-335.93 1511.51,-335.19"/>
</g>
<!-- tracer -->
<g id="node40" class="node">
<title>tracer</title>
<ellipse fill="none" stroke="red" cx="1456.01" cy="-378" rx="31.9" ry="18"/>
<text text-anchor="middle" x="1456.01" y="-372.95" font-family="Times New Roman,serif" font-size="14.00">tracer</text>
</g>
<!-- peggy&#45;&gt;tracer -->
<g id="edge58" class="edge">
<title>peggy&#45;&gt;tracer</title>
<path fill="none" stroke="black" d="M1505.81,-433.46C1497.61,-424.49 1487.11,-413.02 1477.88,-402.92"/>
<polygon fill="black" stroke="black" points="1480.53,-400.63 1471.2,-395.61 1475.36,-405.35 1480.53,-400.63"/>
</g>
<!-- list&#45;missing&#45;tests -->
<g id="node32" class="node">
<title>list&#45;missing&#45;tests</title>
<ellipse fill="none" stroke="green" cx="953.01" cy="-450" rx="73.87" ry="18"/>
<text text-anchor="middle" x="953.01" y="-444.95" font-family="Times New Roman,serif" font-size="14.00">list&#45;missing&#45;tests</text>
</g>
<!-- list&#45;missing&#45;tests&#45;&gt;cmd&#45;args -->
<g id="edge37" class="edge">
<title>list&#45;missing&#45;tests&#45;&gt;cmd&#45;args</title>
<path fill="none" stroke="black" d="M909.48,-435.09C871.9,-423.07 817.8,-405.78 779.62,-393.58"/>
<polygon fill="black" stroke="black" points="780.85,-390.3 770.26,-390.59 778.72,-396.96 780.85,-390.3"/>
</g>
<!-- list&#45;missing&#45;tests&#45;&gt;fs -->
<g id="edge36" class="edge">
<title>list&#45;missing&#45;tests&#45;&gt;fs</title>
<path fill="none" stroke="black" d="M953.01,-431.59C953.01,-407.61 953.01,-364.14 953.01,-335.42"/>
<polygon fill="black" stroke="black" points="956.51,-335.62 953.01,-325.62 949.51,-335.62 956.51,-335.62"/>
</g>
<!-- node&#45;walker&#45;&gt;dump -->
<g id="edge51" class="edge">
<title>node&#45;walker&#45;&gt;dump</title>
<path fill="none" stroke="black" d="M1218.62,-290.33C1195.03,-278.94 1162.35,-263.17 1137.93,-251.37"/>
<polygon fill="black" stroke="black" points="1139.57,-248.28 1129.04,-247.08 1136.53,-254.58 1139.57,-248.28"/>
</g>
<!-- node&#45;walker&#45;&gt;indent -->
<g id="edge52" class="edge">
<title>node&#45;walker&#45;&gt;indent</title>
<path fill="none" stroke="black" d="M1265.89,-288.78C1275.18,-278.95 1286.18,-265.7 1293.01,-252 1314.57,-208.73 1324.21,-152.76 1328.28,-119.49"/>
<polygon fill="black" stroke="black" points="1331.73,-120.16 1329.37,-109.83 1324.77,-119.38 1331.73,-120.16"/>
</g>
<!-- lldot -->
<g id="node34" class="node">
<title>lldot</title>
<ellipse fill="none" stroke="red" cx="475.01" cy="-378" rx="27.81" ry="18"/>
<text text-anchor="middle" x="475.01" y="-372.95" font-family="Times New Roman,serif" font-size="14.00">lldot</text>
</g>
<!-- lldot&#45;&gt;exec&#45;utils -->
<g id="edge41" class="edge">
<title>lldot&#45;&gt;exec&#45;utils</title>
<path fill="none" stroke="black" d="M453.96,-365.75C434.18,-355.18 404.16,-339.14 380.48,-326.49"/>
<polygon fill="black" stroke="black" points="382.24,-323.46 371.77,-321.83 378.94,-329.63 382.24,-323.46"/>
</g>
<!-- lldot&#45;&gt;fs -->
<g id="edge42" class="edge">
<title>lldot&#45;&gt;fs</title>
<path fill="none" stroke="black" d="M497.31,-366.7C503.57,-364.17 510.46,-361.69 517.01,-360 660.5,-322.94 837.42,-311.6 914.3,-308.29"/>
<polygon fill="black" stroke="black" points="914.4,-311.79 924.25,-307.89 914.12,-304.8 914.4,-311.79"/>
</g>
<!-- low&#45;level&#45;build -->
<g id="node35" class="node">
<title>low&#45;level&#45;build</title>
<ellipse fill="none" stroke="green" cx="851.01" cy="-522" rx="67.73" ry="18"/>
<text text-anchor="middle" x="851.01" y="-516.95" font-family="Times New Roman,serif" font-size="14.00">low&#45;level&#45;build</text>
</g>
<!-- low&#45;level&#45;build&#45;&gt;cmd&#45;args -->
<g id="edge44" class="edge">
<title>low&#45;level&#45;build&#45;&gt;cmd&#45;args</title>
<path fill="none" stroke="black" d="M851.45,-503.52C851.05,-484.18 847.73,-452.99 832.01,-432 819.06,-414.7 798.76,-402.41 779.98,-394.05"/>
<polygon fill="black" stroke="black" points="781.44,-390.87 770.86,-390.27 778.76,-397.33 781.44,-390.87"/>
</g>
<!-- low&#45;level&#45;build&#45;&gt;exec&#45;utils -->
<g id="edge43" class="edge">
<title>low&#45;level&#45;build&#45;&gt;exec&#45;utils</title>
<path fill="none" stroke="black" d="M783.69,-519.17C591.08,-513.61 49.88,-495.58 24.01,-468 -8.83,-432.99 -7.03,-396.61 24.01,-360 56.93,-321.19 202.88,-310.76 285.85,-307.98"/>
<polygon fill="black" stroke="black" points="285.72,-311.49 295.61,-307.69 285.5,-304.49 285.72,-311.49"/>
</g>
<!-- low&#45;level&#45;build&#45;&gt;file&#45;processor -->
<g id="edge45" class="edge">
<title>low&#45;level&#45;build&#45;&gt;file&#45;processor</title>
<path fill="none" stroke="black" d="M911.11,-513.3C980.15,-504.1 1096.71,-487.48 1196.01,-468 1200.83,-467.05 1205.81,-466.01 1210.81,-464.91"/>
<polygon fill="black" stroke="black" points="1211.23,-468.4 1220.21,-462.78 1209.68,-461.57 1211.23,-468.4"/>
</g>
<!-- make&#45;new&#45;project -->
<g id="node36" class="node">
<title>make&#45;new&#45;project</title>
<ellipse fill="none" stroke="green" cx="745.01" cy="-450" rx="78.48" ry="18"/>
<text text-anchor="middle" x="745.01" y="-444.95" font-family="Times New Roman,serif" font-size="14.00">make&#45;new&#45;project</text>
</g>
<!-- make&#45;new&#45;project&#45;&gt;cmd&#45;args -->
<g id="edge46" class="edge">
<title>make&#45;new&#45;project&#45;&gt;cmd&#45;args</title>
<path fill="none" stroke="black" d="M742.29,-431.7C741.13,-424.32 739.75,-415.52 738.45,-407.25"/>
<polygon fill="black" stroke="black" points="741.94,-406.93 736.93,-397.6 735.03,-408.02 741.94,-406.93"/>
</g>
<!-- make&#45;new&#45;project&#45;&gt;proj&#45;utils -->
<g id="edge47" class="edge">
<title>make&#45;new&#45;project&#45;&gt;proj&#45;utils</title>
<path fill="none" stroke="black" d="M713.02,-433.12C691.69,-422.53 663.59,-408.58 641.26,-397.49"/>
<polygon fill="black" stroke="black" points="643,-394.45 632.49,-393.14 639.89,-400.72 643,-394.45"/>
</g>
<!-- map&#45;source&#45;line -->
<g id="node37" class="node">
<title>map&#45;source&#45;line</title>
<ellipse fill="none" stroke="green" cx="1116.01" cy="-450" rx="71.31" ry="18"/>
<text text-anchor="middle" x="1116.01" y="-444.95" font-family="Times New Roman,serif" font-size="14.00">map&#45;source&#45;line</text>
</g>
<!-- map&#45;source&#45;line&#45;&gt;cmd&#45;args -->
<g id="edge49" class="edge">
<title>map&#45;source&#45;line&#45;&gt;cmd&#45;args</title>
<path fill="none" stroke="black" d="M1063.14,-437.49C1054.1,-435.6 1044.79,-433.7 1036.01,-432 948.87,-415.1 847.12,-397.73 786.76,-387.67"/>
<polygon fill="black" stroke="black" points="787.55,-384.26 777.11,-386.07 786.4,-391.16 787.55,-384.26"/>
</g>
<!-- source&#45;map -->
<g id="node38" class="node">
<title>source&#45;map</title>
<ellipse fill="none" stroke="red" cx="1082.01" cy="-378" rx="54.42" ry="18"/>
<text text-anchor="middle" x="1082.01" y="-372.95" font-family="Times New Roman,serif" font-size="14.00">source&#45;map</text>
</g>
<!-- map&#45;source&#45;line&#45;&gt;source&#45;map -->
<g id="edge48" class="edge">
<title>map&#45;source&#45;line&#45;&gt;source&#45;map</title>
<path fill="none" stroke="black" d="M1107.61,-431.7C1103.9,-424.07 1099.46,-414.92 1095.32,-406.4"/>
<polygon fill="black" stroke="black" points="1098.5,-404.93 1090.98,-397.47 1092.2,-407.99 1098.5,-404.93"/>
</g>
<!-- source&#45;map&#45;&gt;fs -->
<g id="edge65" class="edge">
<title>source&#45;map&#45;&gt;fs</title>
<path fill="none" stroke="black" d="M1054.65,-362.15C1033.81,-350.84 1005.11,-335.27 983.52,-323.55"/>
<polygon fill="black" stroke="black" points="985.35,-320.56 974.89,-318.87 982.01,-326.72 985.35,-320.56"/>
</g>
<!-- source&#45;map&#45;&gt;dump -->
<g id="edge66" class="edge">
<title>source&#45;map&#45;&gt;dump</title>
<path fill="none" stroke="black" d="M1084.71,-359.59C1088.42,-335.61 1095.16,-292.14 1099.61,-263.42"/>
<polygon fill="black" stroke="black" points="1103.06,-264.02 1101.13,-253.61 1096.14,-262.95 1103.06,-264.02"/>
</g>
<!-- op&#45;dumper&#45;&gt;dump -->
<g id="edge54" class="edge">
<title>op&#45;dumper&#45;&gt;dump</title>
<path fill="none" stroke="black" d="M1459.69,-297.12C1442.84,-294.22 1423.56,-290.92 1406.01,-288 1306.98,-271.5 1281.67,-270.57 1183.01,-252 1170.45,-249.64 1156.82,-246.8 1144.48,-244.13"/>
<polygon fill="black" stroke="black" points="1145.57,-240.79 1135.05,-242.07 1144.07,-247.62 1145.57,-240.79"/>
</g>
<!-- op&#45;dumper&#45;&gt;indent -->
<g id="edge53" class="edge">
<title>op&#45;dumper&#45;&gt;indent</title>
<path fill="none" stroke="black" d="M1491.36,-288.21C1460.83,-250.66 1386.93,-159.78 1351.13,-115.74"/>
<polygon fill="black" stroke="black" points="1353.87,-113.56 1344.85,-108.01 1348.44,-117.98 1353.87,-113.56"/>
</g>
<!-- text&#45;table -->
<g id="node43" class="node">
<title>text&#45;table</title>
<ellipse fill="none" stroke="red" cx="1238.01" cy="-234" rx="45.72" ry="18"/>
<text text-anchor="middle" x="1238.01" y="-228.95" font-family="Times New Roman,serif" font-size="14.00">text&#45;table</text>
</g>
<!-- tracer&#45;&gt;text&#45;table -->
<g id="edge71" class="edge">
<title>tracer&#45;&gt;text&#45;table</title>
<path fill="none" stroke="black" d="M1450.79,-360.05C1443.77,-340.01 1429.4,-307 1406.01,-288 1373.78,-261.81 1328.46,-248.49 1293.02,-241.76"/>
<polygon fill="black" stroke="black" points="1293.84,-238.35 1283.38,-240.06 1292.62,-245.24 1293.84,-238.35"/>
</g>
<!-- section&#45;&gt;indent -->
<g id="edge63" class="edge">
<title>section&#45;&gt;indent</title>
<path fill="none" stroke="black" d="M1429.78,-147.67C1410.88,-136.83 1384.02,-121.42 1363.08,-109.4"/>
<polygon fill="black" stroke="black" points="1365.06,-106.5 1354.65,-104.56 1361.58,-112.57 1365.06,-106.5"/>
</g>
<!-- svelte -->
<g id="node42" class="node">
<title>svelte</title>
<ellipse fill="none" stroke="red" cx="1578.01" cy="-90" rx="32.41" ry="18"/>
<text text-anchor="middle" x="1578.01" y="-84.95" font-family="Times New Roman,serif" font-size="14.00">svelte</text>
</g>
<!-- svelte&#45;&gt;llutils -->
<g id="edge67" class="edge">
<title>svelte&#45;&gt;llutils</title>
<path fill="none" stroke="black" d="M1552.55,-78.41C1545.95,-75.99 1538.79,-73.65 1532.01,-72 1395.74,-38.75 1229.4,-25.68 1152.2,-21.14"/>
<polygon fill="black" stroke="black" points="1152.73,-17.66 1142.55,-20.59 1152.33,-24.65 1152.73,-17.66"/>
</g>
<!-- text&#45;table&#45;&gt;to&#45;nice -->
<g id="edge69" class="edge">
<title>text&#45;table&#45;&gt;to&#45;nice</title>
<path fill="none" stroke="black" d="M1234.55,-215.7C1233.08,-208.32 1231.32,-199.52 1229.66,-191.25"/>
<polygon fill="black" stroke="black" points="1233.12,-190.71 1227.73,-181.59 1226.26,-192.08 1233.12,-190.71"/>
</g>
<!-- token -->
<g id="node44" class="node">
<title>token</title>
<ellipse fill="none" stroke="blue" cx="1606.01" cy="-306" rx="31.39" ry="18"/>
<text text-anchor="middle" x="1606.01" y="-300.95" font-family="Times New Roman,serif" font-size="14.00">token</text>
</g>
<!-- ulmus -->
<g id="node45" class="node">
<title>ulmus</title>
<ellipse fill="none" stroke="blue" cx="1578.01" cy="-378" rx="33.95" ry="18"/>
<text text-anchor="middle" x="1578.01" y="-372.95" font-family="Times New Roman,serif" font-size="14.00">ulmus</text>
</g>
<!-- ulmus&#45;&gt;PLL -->
<g id="edge72" class="edge">
<title>ulmus&#45;&gt;PLL</title>
<path fill="none" stroke="black" d="M1599.03,-363.5C1615.91,-352.66 1639.8,-337.32 1658.42,-325.36"/>
<polygon fill="black" stroke="black" points="1660.09,-328.45 1666.61,-320.1 1656.31,-322.56 1660.09,-328.45"/>
</g>
<!-- ulmus&#45;&gt;token -->
<g id="edge73" class="edge">
<title>ulmus&#45;&gt;token</title>
<path fill="none" stroke="black" d="M1584.79,-360.05C1587.89,-352.32 1591.63,-342.96 1595.11,-334.27"/>
<polygon fill="black" stroke="black" points="1598.27,-335.78 1598.73,-325.19 1591.77,-333.18 1598.27,-335.78"/>
</g>
<!-- utest -->
<g id="node46" class="node">
<title>utest</title>
<ellipse fill="none" stroke="red" cx="1135.01" cy="-522" rx="28.32" ry="18"/>
<text text-anchor="middle" x="1135.01" y="-516.95" font-family="Times New Roman,serif" font-size="14.00">utest</text>
</g>
<!-- utest&#45;&gt;exec&#45;utils -->
<g id="edge74" class="edge">
<title>utest&#45;&gt;exec&#45;utils</title>
<path fill="none" stroke="black" d="M1106.91,-518.34C1067.12,-514.65 992.07,-507.99 928.01,-504 881,-501.07 113.6,-502 81.01,-468 9.29,-393.16 196.52,-339.43 292.01,-317.69"/>
<polygon fill="black" stroke="black" points="292.7,-321.12 301.7,-315.52 291.18,-314.29 292.7,-321.12"/>
</g>
<!-- v8&#45;stack -->
<g id="node47" class="node">
<title>v8&#45;stack</title>
<ellipse fill="none" stroke="red" cx="1389.01" cy="-450" rx="42.14" ry="18"/>
<text text-anchor="middle" x="1389.01" y="-444.95" font-family="Times New Roman,serif" font-size="14.00">v8&#45;stack</text>
</g>
<!-- utest&#45;&gt;v8&#45;stack -->
<g id="edge75" class="edge">
<title>utest&#45;&gt;v8&#45;stack</title>
<path fill="none" stroke="black" d="M1161.44,-514.69C1200.33,-505.28 1275.16,-486.66 1338.01,-468 1340.71,-467.2 1343.49,-466.35 1346.28,-465.48"/>
<polygon fill="black" stroke="black" points="1347.12,-468.88 1355.57,-462.49 1344.98,-462.22 1347.12,-468.88"/>
</g>
<!-- v8&#45;stack&#45;&gt;to&#45;nice -->
<g id="edge77" class="edge">
<title>v8&#45;stack&#45;&gt;to&#45;nice</title>
<path fill="none" stroke="black" d="M1357.05,-437.84C1350.77,-435.79 1344.21,-433.75 1338.01,-432 1269.95,-412.8 1227,-451.38 1183.01,-396 1133.25,-333.36 1157.15,-291.7 1183.01,-216 1186.6,-205.49 1193.22,-195.45 1200.1,-186.99"/>
<polygon fill="black" stroke="black" points="1202.6,-189.45 1206.55,-179.62 1197.33,-184.84 1202.6,-189.45"/>
</g>
<!-- v8&#45;stack&#45;&gt;source&#45;map -->
<g id="edge76" class="edge">
<title>v8&#45;stack&#45;&gt;source&#45;map</title>
<path fill="none" stroke="black" d="M1357.38,-437.73C1351.01,-435.67 1344.33,-433.65 1338.01,-432 1255.7,-410.5 1233.09,-414.32 1150.01,-396 1145.13,-394.92 1140.07,-393.76 1135.01,-392.55"/>
<polygon fill="black" stroke="black" points="1136.02,-389.2 1125.47,-390.24 1134.37,-396 1136.02,-389.2"/>
</g>
</g>
</svg>
